<svg aria-hidden="true" style="position: absolute; width: 0; height: 0; overflow: hidden;" version="1.1" xmlns="http://www.w3.org/2000/svg" xmlns:xlink="http://www.w3.org/1999/xlink">
<defs>
<symbol id="google-play-icon" viewBox="0 0 28 32">
<path fill="#ea4335" style="fill: var(--color1, #ea4335)" d="M13.284 15.268l-13.166 13.794c0.148 0.524 0.414 1.007 0.777 1.413s0.814 0.723 1.319 0.927c0.505 0.204 1.049 0.291 1.592 0.253s1.070-0.2 1.541-0.473l14.814-8.437-6.877-7.476z"></path>
<path fill="#fbbc04" style="fill: var(--color2, #fbbc04)" d="M26.597 12.924l-6.406-3.669-7.211 6.328 7.24 7.142 6.357-3.63c0.563-0.295 1.035-0.738 1.364-1.282s0.503-1.167 0.503-1.803c0-0.636-0.174-1.259-0.503-1.803s-0.801-0.987-1.364-1.282l0.019 0z"></path>
<path fill="#4285f4" style="fill: var(--color3, #4285f4)" d="M0.118 2.887c-0.080 0.294-0.119 0.598-0.118 0.903v24.37c0.001 0.305 0.040 0.608 0.118 0.903l13.617-13.441-13.617-12.734z"></path>
<path fill="#34a853" style="fill: var(--color4, #34a853)" d="M13.382 15.975l6.809-6.72-14.794-8.476c-0.557-0.326-1.19-0.499-1.835-0.5-1.601-0.003-3.008 1.059-3.443 2.6l13.264 13.097z"></path>
</symbol>
<symbol id="burger-menu" viewBox="0 0 32 32">
<path fill="none" stroke="#fff" style="stroke: var(--color5, #fff)" stroke-linejoin="round" stroke-linecap="round" stroke-miterlimit="4" stroke-width="3.2" d="M4 16h24M4 8h24M4 24h24"></path>
</symbol>
<symbol id="icon-close" viewBox="0 0 32 32">
<path fill="#fff" style="fill: var(--color1, #fff)" d="M3.556 31.554l-3.111-3.111 12.444-12.444-12.444-12.444 3.111-3.111 12.444 12.444 12.444-12.444 3.111 3.111-12.444 12.444 12.444 12.444-3.111 3.111-12.444-12.444-12.444 12.444z"></path>
</symbol>
<symbol id="icon-arrow" viewBox="0 0 19 32">
<path fill="none" stroke="#fff" style="stroke: var(--color1, #fff)" stroke-linejoin="round" stroke-linecap="round" stroke-miterlimit="4" stroke-width="5.12" d="M16 28.8l-12.8-12.8 12.8-12.8"></path>
</symbol>
</defs>
</svg>

